# xmcd
#
# Track frame offsets: 
#        150
#        16282
#        31232
#        54572
#        63602
#        77125
#        92200
#        105960
#        120410
#        135210
#        149115
#        167037
#        175650
#        190202
#
# Disc length: 2660 seconds
#
# Revision: 1
# Processed by: cddbd v1.5.2PL0 Copyright (c) Steve Scherf et al.
# Submitted via: ExactAudioCopyFreeDBPlugin 1.0
#
DISCID=b50a620e
DTITLE=憂歌団 - SECOND HAND
DYEAR=1976
DGENRE=Blues
TTITLE0=ハワイアン・ムード
TTITLE1=まっすぐ歩けない
TTITLE2=心のなやみ
TTITLE3=マディー・ジャンプス・ワン
TTITLE4=俺の村では俺も人気者
TTITLE5=コリナ・コリナ
TTITLE6=お政治オバチャン
TTITLE7=１０＄の恋
TTITLE8=たくわん
TTITLE9=どてらい女
TTITLE10=サマータイム
TTITLE11=キ村・ジャンプス・アゲイン
TTITLE12=たくわん(single version)
TTITLE13=どてらい女(single version)
EXTD=YEAR: 1976
EXTT0=
EXTT1=
EXTT2=
EXTT3=
EXTT4=
EXTT5=
EXTT6=
EXTT7=
EXTT8=
EXTT9=
EXTT10=
EXTT11=
EXTT12=
EXTT13=
PLAYORDER=
